<svg xmlns="http://www.w3.org/2000/svg" xmlns:xlink="http://www.w3.org/1999/xlink" width="31" height="32" viewBox="0 0 31 32">
  <defs>
    <clipPath id="clip-path">
      <rect id="Rectangle_15" data-name="Rectangle 15" width="31" height="32" transform="translate(0 -0.488)" fill="#fff"/>
    </clipPath>
  </defs>
  <g id="Mask_Group_1" data-name="Mask Group 1" transform="translate(0 0.488)" clip-path="url(#clip-path)">
    <g id="logo-circle-facebook" transform="translate(0 0.138)">
      <path id="Filled_Icons" d="M15.373,0A15.373,15.373,0,1,0,30.747,15.373,15.391,15.391,0,0,0,15.373,0Zm4.606,14.733H17.3V23.7H13.452V14.733H10.89V12.171h2.562V10.679c0-1.409.451-3.611,3.394-3.611l3.012.009v2.954h-1.8a.729.729,0,0,0-.758.829v1.311h3l-.313,2.562Z" transform="translate(0 0)" fill="#fff"/>
      <path id="Frames-24px" d="M0,0H30.747V30.747H0Z" transform="translate(0 0)" fill="none"/>
    </g>
  </g>
</svg>
